<svg viewBox="0 0 299.000000 118.000000" preserveAspectRatio="xMidYMid meet">
<g transform="translate(0.000000,118.000000) scale(0.100000,-0.100000)"
fill="#000000" stroke="none">
<path d="M140 1061 c0 -5 13 -11 29 -14 16 -4 46 -21 66 -38 l36 -32 -3 -343
c-3 -329 -4 -344 -24 -371 -13 -18 -35 -31 -62 -37 -23 -6 -42 -16 -42 -23 0
-10 34 -13 155 -13 121 0 155 3 155 13 0 7 -19 17 -42 23 -27 6 -49 19 -62 37
-20 27 -21 43 -24 329 -2 223 0 299 8 296 7 -2 139 -161 294 -353 154 -191
287 -350 294 -353 9 -3 12 77 12 368 0 238 4 387 11 415 12 47 34 68 87 79 72
16 25 26 -123 26 -85 0 -155 -4 -155 -8 0 -5 21 -15 48 -23 74 -22 76 -31 80
-323 2 -136 1 -255 -2 -263 -4 -9 -97 100 -258 302 l-252 315 -113 0 c-62 0
-113 -4 -113 -9z"/>
<path d="M1110 1013 c0 -32 -3 -82 -6 -110 -6 -45 -4 -53 9 -53 10 0 19 12 23
28 13 53 44 102 77 119 23 12 57 17 117 17 l85 1 3 -350 c3 -390 0 -417 -50
-434 -17 -6 -42 -11 -54 -11 -15 0 -24 -6 -24 -15 0 -13 28 -15 190 -15 154 0
190 3 190 14 0 8 -16 16 -42 19 -80 11 -78 -1 -78 423 l0 374 63 0 c129 -1
185 -34 209 -125 7 -25 18 -45 25 -45 10 0 13 27 13 110 l0 110 -375 0 -375 0
0 -57z"/>
<path d="M1910 1061 c0 -5 18 -12 39 -16 86 -14 90 -31 90 -381 1 -299 7 -331
79 -403 66 -65 133 -85 274 -79 93 3 112 7 164 33 70 36 116 97 133 175 6 29
11 154 11 285 0 318 8 350 98 369 72 16 25 26 -123 26 -85 0 -155 -4 -155 -8
0 -5 21 -15 48 -23 81 -24 83 -35 80 -359 -3 -255 -5 -278 -24 -320 -27 -58
-71 -95 -136 -115 -139 -41 -272 15 -309 132 -14 43 -25 508 -14 580 8 55 31
79 84 88 91 15 33 25 -149 25 -108 0 -190 -4 -190 -9z"/>
</g>
</svg>