<svg viewBox="0 0 637.000000 244.000000" preserveAspectRatio="xMidYMid meet">
<g transform="translate(0.000000,244.000000) scale(0.100000,-0.100000)"
fill="#000000" stroke="none">
<path d="M5099 2360 c-223 -20 -413 -93 -520 -200 -97 -96 -139 -205 -139
-360 0 -162 40 -270 139 -373 106 -112 231 -180 531 -290 293 -107 394 -167
441 -263 41 -86 23 -200 -45 -281 -38 -45 -150 -99 -238 -113 -115 -20 -350
-8 -468 24 -141 37 -228 75 -324 141 l-66 45 0 -153 c0 -83 3 -161 6 -173 4
-14 26 -28 73 -46 285 -111 722 -138 1020 -62 323 82 494 276 495 564 0 164
-44 284 -147 396 -105 114 -265 206 -575 328 -347 136 -442 211 -442 347 0 74
31 134 89 170 62 40 122 56 251 70 195 20 395 -17 580 -109 52 -26 98 -48 103
-50 4 -2 7 59 7 136 l0 141 -57 21 c-198 75 -482 111 -714 90z"/>
<path d="M200 1290 l0 -1010 140 0 140 0 0 737 c0 590 3 735 13 725 6 -7 230
-324 497 -705 436 -622 490 -694 534 -722 l49 -30 204 -3 203 -3 0 1010 0
1011 -145 0 -145 0 -2 -735 -3 -735 -470 672 c-259 370 -488 693 -510 717 -68
74 -91 81 -312 81 l-193 0 0 -1010z"/>
<path d="M2382 1558 c3 -731 4 -744 26 -821 77 -276 261 -436 577 -502 110
-23 327 -30 453 -16 371 43 584 197 683 496 l24 70 3 758 3 757 -211 0 -210 0
0 -707 c0 -771 -2 -792 -57 -901 -64 -126 -175 -202 -325 -223 -231 -31 -429
69 -500 253 -45 117 -47 164 -48 891 l0 687 -210 0 -211 0 3 -742z"/>
</g>
</svg>