<svg viewBox="0 0 298.000000 110.000000" preserveAspectRatio="xMidYMid meet">
<g transform="translate(0.000000,110.000000) scale(0.100000,-0.100000)"
fill="#000000" stroke="none">
<path d="M294 1081 c-155 -40 -225 -190 -155 -334 24 -50 100 -127 211 -214
41 -33 87 -75 102 -95 80 -106 34 -250 -89 -276 -125 -27 -229 28 -242 129 -9
67 -28 59 -36 -13 -12 -108 -6 -130 40 -153 33 -16 60 -20 150 -20 95 0 117 3
163 24 134 60 193 212 137 348 -18 43 -93 123 -180 191 -150 118 -185 162
-185 232 0 91 75 148 181 136 33 -3 73 -13 89 -21 32 -16 60 -61 60 -94 0 -21
15 -37 23 -24 3 5 7 44 8 87 4 76 3 79 -21 88 -33 13 -217 19 -256 9z"/>
<path d="M885 1048 c-3 -18 -17 -134 -31 -258 -77 -677 -73 -660 -136 -660
-19 0 -28 -4 -26 -12 6 -18 270 -18 275 0 3 7 -5 12 -22 12 -52 0 -65 15 -65
78 0 51 30 400 45 540 l6 52 143 -282 c168 -333 207 -402 226 -406 11 -2 68
104 190 347 96 193 176 349 177 347 2 -2 12 -95 23 -207 11 -112 22 -226 26
-254 3 -27 7 -90 9 -140 l3 -90 129 -8 c70 -4 134 -5 140 -2 25 9 12 25 -21
25 -52 0 -95 20 -111 50 -15 29 -23 85 -85 629 -25 225 -38 287 -54 270 -7 -6
-225 -445 -323 -648 -40 -84 -75 -152 -77 -150 -3 4 -107 204 -297 576 -63
123 -119 223 -126 223 -7 0 -15 -15 -18 -32z"/>
<path d="M1960 1072 c-23 -8 -7 -20 31 -25 76 -10 73 0 79 -355 6 -302 7 -320
29 -376 52 -130 165 -203 331 -213 198 -12 345 75 396 236 26 82 33 176 34
429 0 137 4 241 10 252 6 11 26 22 46 26 99 18 -26 31 -246 25 -34 -1 -22 -18
18 -25 20 -3 44 -10 52 -16 39 -25 39 -558 0 -692 -17 -59 -70 -120 -132 -152
-47 -23 -68 -28 -130 -28 -85 0 -130 15 -185 65 -90 82 -105 160 -101 521 3
268 3 268 27 287 13 10 34 19 47 19 24 0 35 20 12 21 -71 2 -310 3 -318 1z"/>
</g>
</svg>